<?xml version="1.0" encoding="UTF-8"?>
<svg xmlns="http://www.w3.org/2000/svg" xmlns:xlink="http://www.w3.org/1999/xlink" width="521pt" height="219pt" viewBox="0 0 521 219"><g transform="translate(2.75, 115.15)" style="fill:#161413; fill-rule:nonzero; stroke:none; stroke-width:1.5; stroke-linecap:butt; stroke-linejoin:miter; stroke-dasharray:none;"><path d="M1.5 36.3C1.5 36.3 0 37.2 0 37.2C0 37.2 0 0 0 0C0 0 1.5 0.9 1.5 0.9C1.5 0.9 1.5 36.3 1.5 36.3Z"/></g><g transform="translate(9.2998, 119.35)" style="fill:#161413; fill-rule:nonzero; stroke:none; stroke-width:1.5; stroke-linecap:butt; stroke-linejoin:miter; stroke-dasharray:none;"><path d="M1.5 28.8C1.5 28.8 0 28.8 0 28.8C0 28.8 0 0 0 0C0 0 1.5 0 1.5 0C1.5 0 1.5 28.8 1.5 28.8Z"/></g><g transform="translate(2.75, 151.45)" style="fill:#161413; fill-rule:nonzero; stroke:none; stroke-width:1.5; stroke-linecap:butt; stroke-linejoin:miter; stroke-dasharray:none;"><path d="M32.2002 17.75C32.2002 17.75 32.2002 18.6 32.2002 18.6C32.2002 18.6 31.4502 19.05 31.4502 19.05C31.4502 19.05 0 0.9 0 0.9C0 0.9 1.5 0 1.5 0C1.5 0 32.2002 17.75 32.2002 17.75Z"/></g><g transform="translate(34.9502, 151.45)" style="fill:#161413; fill-rule:nonzero; stroke:none; stroke-width:1.5; stroke-linecap:butt; stroke-linejoin:miter; stroke-dasharray:none;"><path d="M30.6494 0C30.6494 0 32.2002 0.9 32.2002 0.9C32.2002 0.9 0.75 19.05 0.75 19.05C0.75 19.05 0 18.6 0 18.6C0 18.6 0 17.75 0 17.75C0 17.75 30.6494 0 30.6494 0Z"/></g><g transform="translate(34.5498, 147.5)" style="fill:#161413; fill-rule:nonzero; stroke:none; stroke-width:1.5; stroke-linecap:butt; stroke-linejoin:miter; stroke-dasharray:none;"><path d="M24.9004 0C24.9004 0 25.6504 1.3 25.6504 1.3C25.6504 1.3 0.75 15.65 0.75 15.65C0.75 15.65 0 14.35 0 14.35C0 14.35 24.9004 0 24.9004 0Z"/></g><g transform="translate(65.5996, 115.6)" style="fill:#161413; fill-rule:nonzero; stroke:none; stroke-width:1.5; stroke-linecap:butt; stroke-linejoin:miter; stroke-dasharray:none;"><path d="M0 0.45C0 0.45 0.8008 0 0.8008 0C0.8008 0 1.5508 0.45 1.5508 0.45C1.5508 0.45 1.5508 36.75 1.5508 36.75C1.5508 36.75 0 35.85 0 35.85C0 35.85 0 0.45 0 0.45Z"/></g><g transform="translate(34.9502, 96.5996)" style="fill:#161413; fill-rule:nonzero; stroke:none; stroke-width:1.5; stroke-linecap:butt; stroke-linejoin:miter; stroke-dasharray:none;"><path d="M0 1.7002C0 1.7002 0 0 0 0C0 0 31.4502 18.1504 31.4502 18.1504C31.4502 18.1504 31.4502 19.0004 31.4502 19.0004C31.4502 19.0004 30.6494 19.4504 30.6494 19.4504C30.6494 19.4504 0 1.7002 0 1.7002Z"/></g><g transform="translate(34.5498, 104.35)" style="fill:#161413; fill-rule:nonzero; stroke:none; stroke-width:1.5; stroke-linecap:butt; stroke-linejoin:miter; stroke-dasharray:none;"><path d="M0 1.3C0 1.3 0.75 0 0.75 0C0.75 0 25.6504 14.35 25.6504 14.35C25.6504 14.35 24.9004 15.7 24.9004 15.7C24.9004 15.7 0 1.3 0 1.3Z"/></g><g transform="translate(2.75, 96.5996)" style="fill:#161413; fill-rule:nonzero; stroke:none; stroke-width:1.5; stroke-linecap:butt; stroke-linejoin:miter; stroke-dasharray:none;"><path d="M1.5 19.4504C1.5 19.4504 0 18.5504 0 18.5504C0 18.5504 32.2002 0 32.2002 0C32.2002 0 32.2002 1.7002 32.2002 1.7002C32.2002 1.7002 1.5 19.4504 1.5 19.4504Z"/></g><g transform="translate(90.666, 88.8721)" style="fill:#161413; fill-rule:evenodd; stroke:none; stroke-width:1.5; stroke-linecap:butt; stroke-linejoin:miter; stroke-dasharray:none;"><path d="M14.37 0C14.37 0 12.151 0 12.151 0C12.151 0 12.151 15.0249 12.151 15.0249C12.151 15.0249 2.5459 0 2.5459 0C2.5459 0 0 0 0 0C0 0 0 18.3779 0 18.3779C0 18.3779 2.2188 18.3779 2.2188 18.3779C2.2188 18.3779 2.2188 3.4785 2.2188 3.4785C2.2188 3.4785 11.723 18.3779 11.723 18.3779C11.723 18.3779 14.37 18.3779 14.37 18.3779C14.37 18.3779 14.37 0 14.37 0Z"/></g><g transform="translate(66.4004, 104.3)" style="fill:#161413; fill-rule:nonzero; stroke:none; stroke-width:1.5; stroke-linecap:butt; stroke-linejoin:miter; stroke-dasharray:none;"><path d="M18 0C18 0 18.75 1.35 18.75 1.35C18.75 1.35 0.75 11.75 0.75 11.75C0.75 11.75 0 11.3 0 11.3C0 11.3 0 10.45 0 10.45C0 10.45 18 0 18 0Z"/></g><g transform="translate(27.21, 197.569)" style="fill:#161413; fill-rule:evenodd; stroke:none; stroke-width:1.5; stroke-linecap:butt; stroke-linejoin:miter; stroke-dasharray:none;"><path d="M15.4795 6C14.748 1.967 12.4287 0 8.3955 0C5.9248 0 3.9326 0.782 2.5713 2.294C0.9072 4.11 0 6.732 0 9.706C0 12.732 0.9326 15.328 2.6728 17.118C4.0839 18.58 5.8994 19.261 8.2939 19.261C12.7812 19.261 15.3027 16.841 15.8574 11.975C15.8574 11.975 13.4375 11.975 13.4375 11.975C13.2353 13.236 12.9834 14.093 12.6054 14.824C11.8486 16.336 10.2861 17.194 8.3193 17.194C4.664 17.194 2.3447 14.269 2.3447 9.681C2.3447 4.967 4.5634 2.068 8.1181 2.068C9.6054 2.068 10.9912 2.522 11.748 3.227C12.4287 3.858 12.8066 4.639 13.0839 6C13.0839 6 15.4795 6 15.4795 6Z"/></g><g transform="translate(45.7139, 197.872)" style="fill:#161413; fill-rule:evenodd; stroke:none; stroke-width:1.5; stroke-linecap:butt; stroke-linejoin:miter; stroke-dasharray:none;"><path d="M2.1181 0C2.1181 0 0 0 0 0C0 0 0 18.378 0 18.378C0 18.378 2.1181 18.378 2.1181 18.378C2.1181 18.378 2.1181 0 2.1181 0Z"/></g><g transform="translate(34.2002, 170.05)" style="fill:#161413; fill-rule:nonzero; stroke:none; stroke-width:1.5; stroke-linecap:butt; stroke-linejoin:miter; stroke-dasharray:none;"><path d="M1.5 23.9C1.5 23.9 0 23.9 0 23.9C0 23.9 0 0.45 0 0.45C0 0.45 0.75 0 0.75 0C0.75 0 1.5 0.45 1.5 0.45C1.5 0.45 1.5 23.9 1.5 23.9Z"/></g><g transform="translate(153.666, 52.6221)" style="fill:#161413; fill-rule:evenodd; stroke:none; stroke-width:1.5; stroke-linecap:butt; stroke-linejoin:miter; stroke-dasharray:none;"><path d="M14.37 0C14.37 0 12.151 0 12.151 0C12.151 0 12.151 15.0254 12.151 15.0254C12.151 15.0254 2.546 0 2.546 0C2.546 0 0 0 0 0C0 0 0 18.3779 0 18.3779C0 18.3779 2.219 18.3779 2.219 18.3779C2.219 18.3779 2.219 3.4785 2.219 3.4785C2.219 3.4785 11.723 18.3779 11.723 18.3779C11.723 18.3779 14.37 18.3779 14.37 18.3779C14.37 18.3779 14.37 0 14.37 0Z"/></g><g transform="translate(110.45, 104.3)" style="fill:#161413; fill-rule:nonzero; stroke:none; stroke-width:1.5; stroke-linecap:butt; stroke-linejoin:miter; stroke-dasharray:none;"><path d="M18.8 10.45C18.8 10.45 18.8 12.15 18.8 12.15C18.8 12.15 0 1.3 0 1.3C0 1.3 0.75 0 0.75 0C0.75 0 18.8 10.45 18.8 10.45Z"/></g><g transform="translate(129.25, 97)" style="fill:#161413; fill-rule:nonzero; stroke:none; stroke-width:1.5; stroke-linecap:butt; stroke-linejoin:miter; stroke-dasharray:none;"><path d="M30.7 0C30.7 0 32.2 0.9004 32.2 0.9004C32.2 0.9004 0 19.45 0 19.45C0 19.45 0 17.75 0 17.75C0 17.75 30.7 0 30.7 0Z"/></g><g transform="translate(159.95, 75.0996)" style="fill:#161413; fill-rule:nonzero; stroke:none; stroke-width:1.5; stroke-linecap:butt; stroke-linejoin:miter; stroke-dasharray:none;"><path d="M0 0C0 0 1.5 0 1.5 0C1.5 0 1.5 22.8008 1.5 22.8008C1.5 22.8008 0 21.9004 0 21.9004C0 21.9004 0 0 0 0Z"/></g><g transform="translate(129.25, 42.0996)" style="fill:#161413; fill-rule:nonzero; stroke:none; stroke-width:1.5; stroke-linecap:butt; stroke-linejoin:miter; stroke-dasharray:none;"><path d="M0 1.75C0 1.75 0 0 0 0C0 0 19.45 11.25 19.45 11.25C19.45 11.25 18.7 12.5508 18.7 12.5508C18.7 12.5508 0 1.75 0 1.75Z"/></g><g transform="translate(97.0498, 42.0996)" style="fill:#161413; fill-rule:nonzero; stroke:none; stroke-width:1.5; stroke-linecap:butt; stroke-linejoin:miter; stroke-dasharray:none;"><path d="M1.5498 19.5C1.5498 19.5 0 18.6006 0 18.6006C0 18.6006 32.2002 0 32.2002 0C32.2002 0 32.2002 1.75 32.2002 1.75C32.2002 1.75 1.5498 19.5 1.5498 19.5Z"/></g><g transform="translate(97.0498, 60.7002)" style="fill:#161413; fill-rule:nonzero; stroke:none; stroke-width:1.5; stroke-linecap:butt; stroke-linejoin:miter; stroke-dasharray:none;"><path d="M1.5498 24.5996C1.5498 24.5996 0 24.5996 0 24.5996C0 24.5996 0 0 0 0C0 0 1.5498 0.8994 1.5498 0.8994C1.5498 0.8994 1.5498 24.5996 1.5498 24.5996Z"/></g><g transform="translate(172.6, 42.0996)" style="fill:#161413; fill-rule:nonzero; stroke:none; stroke-width:1.5; stroke-linecap:butt; stroke-linejoin:miter; stroke-dasharray:none;"><path d="M19.55 0C19.55 0 19.55 1.75 19.55 1.75C19.55 1.75 0.75 12.6006 0.75 12.6006C0.75 12.6006 0 11.3008 0 11.3008C0 11.3008 19.55 0 19.55 0Z"/></g><g transform="translate(192.15, 42.0996)" style="fill:#161413; fill-rule:nonzero; stroke:none; stroke-width:1.5; stroke-linecap:butt; stroke-linejoin:miter; stroke-dasharray:none;"><path d="M31.4 18.1504C31.4 18.1504 31.4 19.9004 31.4 19.9004C31.4 19.9004 0 1.75 0 1.75C0 1.75 0 0 0 0C0 0 31.4 18.1504 31.4 18.1504Z"/></g><g transform="translate(223.55, 42.0996)" style="fill:#161413; fill-rule:nonzero; stroke:none; stroke-width:1.5; stroke-linecap:butt; stroke-linejoin:miter; stroke-dasharray:none;"><path d="M31.45 0C31.45 0 31.45 1.75 31.45 1.75C31.45 1.75 0 19.9004 0 19.9004C0 19.9004 0 18.1504 0 18.1504C0 18.1504 31.45 0 31.45 0Z"/></g><g transform="translate(279.416, 52.6221)" style="fill:#161413; fill-rule:evenodd; stroke:none; stroke-width:1.5; stroke-linecap:butt; stroke-linejoin:miter; stroke-dasharray:none;"><path d="M14.37 0C14.37 0 12.151 0 12.151 0C12.151 0 12.151 15.0254 12.151 15.0254C12.151 15.0254 2.546 0 2.546 0C2.546 0 0 0 0 0C0 0 0 18.3779 0 18.3779C0 18.3779 2.219 18.3779 2.219 18.3779C2.219 18.3779 2.219 3.4785 2.219 3.4785C2.219 3.4785 11.723 18.3779 11.723 18.3779C11.723 18.3779 14.37 18.3779 14.37 18.3779C14.37 18.3779 14.37 0 14.37 0Z"/></g><g transform="translate(255, 42.0996)" style="fill:#161413; fill-rule:nonzero; stroke:none; stroke-width:1.5; stroke-linecap:butt; stroke-linejoin:miter; stroke-dasharray:none;"><path d="M19.45 11.25C19.45 11.25 18.7 12.5508 18.7 12.5508C18.7 12.5508 0 1.75 0 1.75C0 1.75 0 0 0 0C0 0 19.45 11.25 19.45 11.25Z"/></g><g transform="translate(283.166, 88.8721)" style="fill:#161413; fill-rule:evenodd; stroke:none; stroke-width:1.5; stroke-linecap:butt; stroke-linejoin:miter; stroke-dasharray:none;"><path d="M14.37 0C14.37 0 12.151 0 12.151 0C12.151 0 12.151 15.0249 12.151 15.0249C12.151 15.0249 2.546 0 2.546 0C2.546 0 0 0 0 0C0 0 0 18.3779 0 18.3779C0 18.3779 2.219 18.3779 2.219 18.3779C2.219 18.3779 2.219 3.4785 2.219 3.4785C2.219 3.4785 11.723 18.3779 11.723 18.3779C11.723 18.3779 14.37 18.3779 14.37 18.3779C14.37 18.3779 14.37 0 14.37 0Z"/></g><g transform="translate(336.666, 64.8721)" style="fill:#161413; fill-rule:evenodd; stroke:none; stroke-width:1.5; stroke-linecap:butt; stroke-linejoin:miter; stroke-dasharray:none;"><path d="M14.37 0C14.37 0 12.151 0 12.151 0C12.151 0 12.151 15.0254 12.151 15.0254C12.151 15.0254 2.546 0 2.546 0C2.546 0 0 0 0 0C0 0 0 18.3779 0 18.3779C0 18.3779 2.219 18.3779 2.219 18.3779C2.219 18.3779 2.219 3.4785 2.219 3.4785C2.219 3.4785 11.723 18.3779 11.723 18.3779C11.723 18.3779 14.37 18.3779 14.37 18.3779C14.37 18.3779 14.37 0 14.37 0Z"/></g><g transform="translate(285.75, 74.7002)" style="fill:#161413; fill-rule:nonzero; stroke:none; stroke-width:1.5; stroke-linecap:butt; stroke-linejoin:miter; stroke-dasharray:none;"><path d="M5.2 10.25C5.2 10.25 3.8 10.75 3.8 10.75C3.8 10.75 0 0.5498 0 0.5498C0 0.5498 1.4 0 1.4 0C1.4 0 5.2 10.25 5.2 10.25Z"/></g><g transform="translate(302.15, 99.0996)" style="fill:#161413; fill-rule:nonzero; stroke:none; stroke-width:1.5; stroke-linecap:butt; stroke-linejoin:miter; stroke-dasharray:none;"><path d="M23.25 4.8504C23.25 4.8504 23.6 5.7004 23.6 5.7004C23.6 5.7004 23.05 6.3504 23.05 6.3504C23.05 6.3504 0 1.4504 0 1.4504C0 1.4504 0.35 0 0.35 0C0.35 0 23.25 4.8504 23.25 4.8504Z"/></g><g transform="translate(303.5, 92.7002)" style="fill:#161413; fill-rule:nonzero; stroke:none; stroke-width:1.5; stroke-linecap:butt; stroke-linejoin:miter; stroke-dasharray:none;"><path d="M19.15 4C19.15 4 18.8 5.4502 18.8 5.4502C18.8 5.4502 0 1.4502 0 1.4502C0 1.4502 0.35 0 0.35 0C0.35 0 19.15 4 19.15 4Z"/></g><g transform="translate(325.4, 87)" style="fill:#161413; fill-rule:nonzero; stroke:none; stroke-width:1.5; stroke-linecap:butt; stroke-linejoin:miter; stroke-dasharray:none;"><path d="M9.75 0C9.75 0 11.05 0.75 11.05 0.75C11.05 0.75 1.2 17.85 1.2 17.85C1.2 17.85 0.35 17.8 0.35 17.8C0.35 17.8 0 16.95 0 16.95C0 16.95 9.75 0 9.75 0Z"/></g><g transform="translate(319.4, 45.4502)" style="fill:#161413; fill-rule:nonzero; stroke:none; stroke-width:1.5; stroke-linecap:butt; stroke-linejoin:miter; stroke-dasharray:none;"><path d="M0 1.8496C0 1.8496 0.4 0 0.4 0C0.4 0 15.15 16.3496 15.15 16.3496C15.15 16.3496 14 17.3496 14 17.3496C14 17.3496 0 1.8496 0 1.8496Z"/></g><g transform="translate(298.75, 45.4502)" style="fill:#161413; fill-rule:nonzero; stroke:none; stroke-width:1.5; stroke-linecap:butt; stroke-linejoin:miter; stroke-dasharray:none;"><path d="M0.65 10.75C0.65 10.75 0 9.3994 0 9.3994C0 9.3994 21.05 0 21.05 0C21.05 0 20.65 1.8496 20.65 1.8496C20.65 1.8496 0.65 10.75 0.65 10.75Z"/></g><g transform="translate(318.208, 2.06934)" style="fill:#161413; fill-rule:evenodd; stroke:none; stroke-width:1.5; stroke-linecap:butt; stroke-linejoin:miter; stroke-dasharray:none;"><path d="M8.849 0C3.58 0 0 3.88281 0 9.62986C0 15.378 3.58 19.2608 8.874 19.2608C11.093 19.2608 13.084 18.5801 14.571 17.3194C16.563 15.6299 17.748 12.7813 17.748 9.78126C17.748 3.85742 14.243 0 8.849 0ZM8.849 2.06738C12.832 2.06738 15.403 5.09277 15.403 9.73146C15.403 14.168 12.756 17.1934 8.874 17.1934C4.967 17.1934 2.345 14.168 2.345 9.62986C2.345 5.09277 4.967 2.06738 8.849 2.06738Z"/></g><g transform="translate(315.2, 24.0498)" style="fill:#161413; fill-rule:nonzero; stroke:none; stroke-width:1.5; stroke-linecap:butt; stroke-linejoin:miter; stroke-dasharray:none;"><path d="M5.05 0C5.05 0 6.5 0.3506 6.5 0.3506C6.5 0.3506 1.45 24.1504 1.45 24.1504C1.45 24.1504 0 23.7998 0 23.7998C0 23.7998 5.05 0 5.05 0Z"/></g><g transform="translate(321.6, 25.4502)" style="fill:#161413; fill-rule:nonzero; stroke:none; stroke-width:1.5; stroke-linecap:butt; stroke-linejoin:miter; stroke-dasharray:none;"><path d="M5.05 0C5.05 0 6.5 0.2998 6.5 0.2998C6.5 0.2998 1.45 24.0996 1.45 24.0996C1.45 24.0996 0 23.7998 0 23.7998C0 23.7998 5.05 0 5.05 0Z"/></g><g transform="translate(325.2, 104.8)" style="fill:#161413; fill-rule:nonzero; stroke:none; stroke-width:1.5; stroke-linecap:butt; stroke-linejoin:miter; stroke-dasharray:none;"><path d="M15.85 32.45C15.85 32.45 14.8 33.85 14.8 33.85C14.8 33.85 0 0.65 0 0.65C0 0.65 0.55 0 0.55 0C0.55 0 1.4 0.05 1.4 0.05C1.4 0.05 15.85 32.45 15.85 32.45Z"/></g><g transform="translate(340, 137.25)" style="fill:#161413; fill-rule:nonzero; stroke:none; stroke-width:1.5; stroke-linecap:butt; stroke-linejoin:miter; stroke-dasharray:none;"><path d="M36.7 3.75C36.7 3.75 36.55 5.25 36.55 5.25C36.55 5.25 0 1.4 0 1.4C0 1.4 1.05 0 1.05 0C1.05 0 36.7 3.75 36.7 3.75Z"/></g><g transform="translate(354.85, 68.75)" style="fill:#161413; fill-rule:nonzero; stroke:none; stroke-width:1.5; stroke-linecap:butt; stroke-linejoin:miter; stroke-dasharray:none;"><path d="M25.5 0C25.5 0 24.85 1.6504 24.85 1.6504C24.85 1.6504 0.25 5.3496 0.25 5.3496C0.25 5.3496 0 3.8496 0 3.8496C0 3.8496 25.5 0 25.5 0Z"/></g><g transform="translate(379.7, 68.75)" style="fill:#161413; fill-rule:nonzero; stroke:none; stroke-width:1.5; stroke-linecap:butt; stroke-linejoin:miter; stroke-dasharray:none;"><path d="M22.6 28.9004C22.6 28.9004 21.95 30.5498 21.95 30.5498C21.95 30.5498 0 1.6504 0 1.6504C0 1.6504 0.65 0 0.65 0C0.65 0 22.6 28.9004 22.6 28.9004Z"/></g><g transform="translate(429.208, 85.0693)" style="fill:#161413; fill-rule:evenodd; stroke:none; stroke-width:1.5; stroke-linecap:butt; stroke-linejoin:miter; stroke-dasharray:none;"><path d="M8.849 0C3.58 0 0 3.8828 0 9.6299C0 15.3777 3.58 19.2607 8.874 19.2607C11.093 19.2607 13.084 18.5797 14.571 17.3197C16.563 15.6297 17.748 12.7813 17.748 9.7813C17.748 3.8575 14.243 0 8.849 0ZM8.849 2.0674C12.832 2.0674 15.403 5.0928 15.403 9.7315C15.403 14.168 12.756 17.1937 8.874 17.1937C4.967 17.1937 2.345 14.168 2.345 9.6299C2.345 5.0928 4.967 2.0674 8.849 2.0674Z"/></g><g transform="translate(401.65, 93.1504)" style="fill:#161413; fill-rule:nonzero; stroke:none; stroke-width:1.5; stroke-linecap:butt; stroke-linejoin:miter; stroke-dasharray:none;"><path d="M23.7 0C23.7 0 23.95 1.5 23.95 1.5C23.95 1.5 0 6.1494 0 6.1494C0 6.1494 0.65 4.5 0.65 4.5C0.65 4.5 23.7 0 23.7 0Z"/></g><g transform="translate(445.85, 104.6)" style="fill:#161413; fill-rule:nonzero; stroke:none; stroke-width:1.5; stroke-linecap:butt; stroke-linejoin:miter; stroke-dasharray:none;"><path d="M14.45 17.4C14.45 17.4 14.1 18.2 14.1 18.2C14.1 18.2 13.25 18.3 13.25 18.3C13.25 18.3 0 0.95 0 0.95C0 0.95 1.25 0 1.25 0C1.25 0 14.45 17.4 14.45 17.4Z"/></g><g transform="translate(445.05, 122.8)" style="fill:#161413; fill-rule:nonzero; stroke:none; stroke-width:1.5; stroke-linecap:butt; stroke-linejoin:miter; stroke-dasharray:none;"><path d="M1.7 33.35C1.7 33.35 0 33.6 0 33.6C0 33.6 14.05 0.1 14.05 0.1C14.05 0.1 14.9 0 14.9 0C14.9 0 15.45 0.7 15.45 0.7C15.45 0.7 1.7 33.35 1.7 33.35Z"/></g><g transform="translate(452.7, 128.5)" style="fill:#161413; fill-rule:nonzero; stroke:none; stroke-width:1.5; stroke-linecap:butt; stroke-linejoin:miter; stroke-dasharray:none;"><path d="M1.4 27.1C1.4 27.1 0 26.55 0 26.55C0 26.55 11.1 0 11.1 0C11.1 0 12.5 0.6 12.5 0.6C12.5 0.6 1.4 27.1 1.4 27.1Z"/></g><g transform="translate(445.05, 156.15)" style="fill:#161413; fill-rule:nonzero; stroke:none; stroke-width:1.5; stroke-linecap:butt; stroke-linejoin:miter; stroke-dasharray:none;"><path d="M23.15 28.25C23.15 28.25 22.45 29.85 22.45 29.85C22.45 29.85 0 0.25 0 0.25C0 0.25 1.7 0 1.7 0C1.7 0 23.15 28.25 23.15 28.25Z"/></g><g transform="translate(467.5, 179.9)" style="fill:#161413; fill-rule:nonzero; stroke:none; stroke-width:1.5; stroke-linecap:butt; stroke-linejoin:miter; stroke-dasharray:none;"><path d="M35.85 0C35.85 0 36.9 1.4 36.9 1.4C36.9 1.4 0 6.1 0 6.1C0 6.1 0.7 4.5 0.7 4.5C0.7 4.5 35.85 0 35.85 0Z"/></g><g transform="translate(470.7, 173.85)" style="fill:#161413; fill-rule:nonzero; stroke:none; stroke-width:1.5; stroke-linecap:butt; stroke-linejoin:miter; stroke-dasharray:none;"><path d="M28.5 0C28.5 0 28.7 1.5 28.7 1.5C28.7 1.5 0.2 5.15 0.2 5.15C0.2 5.15 0 3.65 0 3.65C0 3.65 28.5 0 28.5 0Z"/></g><g transform="translate(503.35, 147.05)" style="fill:#161413; fill-rule:nonzero; stroke:none; stroke-width:1.5; stroke-linecap:butt; stroke-linejoin:miter; stroke-dasharray:none;"><path d="M13.7 0.2C13.7 0.2 15.45 0 15.45 0C15.45 0 1.05 34.25 1.05 34.25C1.05 34.25 0 32.85 0 32.85C0 32.85 13.7 0.2 13.7 0.2Z"/></g><g transform="translate(495.65, 117.45)" style="fill:#161413; fill-rule:nonzero; stroke:none; stroke-width:1.5; stroke-linecap:butt; stroke-linejoin:miter; stroke-dasharray:none;"><path d="M0 1.6C0 1.6 0.65 0 0.65 0C0.65 0 23.15 29.6 23.15 29.6C23.15 29.6 21.4 29.8 21.4 29.8C21.4 29.8 0 1.6 0 1.6Z"/></g><g transform="translate(492.45, 124.75)" style="fill:#161413; fill-rule:nonzero; stroke:none; stroke-width:1.5; stroke-linecap:butt; stroke-linejoin:miter; stroke-dasharray:none;"><path d="M0 0.9C0 0.9 1.2 0 1.2 0C1.2 0 18.6 22.9 18.6 22.9C18.6 22.9 17.4 23.8 17.4 23.8C17.4 23.8 0 0.9 0 0.9Z"/></g><g transform="translate(459.95, 117.45)" style="fill:#161413; fill-rule:nonzero; stroke:none; stroke-width:1.5; stroke-linecap:butt; stroke-linejoin:miter; stroke-dasharray:none;"><path d="M0.55 6.05C0.55 6.05 0 5.35 0 5.35C0 5.35 0.35 4.55 0.35 4.55C0.35 4.55 36.35 0 36.35 0C36.35 0 35.7 1.6 35.7 1.6C35.7 1.6 0.55 6.05 0.55 6.05Z"/></g></svg>